<svg xmlns="http://www.w3.org/2000/svg" viewBox="0 0 1000 1000"><defs><style>.cls-1{fill:#fff;}</style></defs><title>bonsai-white</title><g id="Layer_2" data-name="Layer 2"><g id="Layer_1-2" data-name="Layer 1"><path class="cls-1" d="M899.1,0V224.16L774.64,0H683.4V397.16c-8.88-107.22-97.27-191-206.87-191C397.19,206.16,328.35,251,293.58,317a130.11,130.11,0,0,0,6.63-41.74c0-37.46-22.13-85.12-75.48-93.07,43.7-12.48,55-55,55-77.18C279.78,42,232.68,0,160,0H0V391H171.39c59.11,0,94.43-22.7,112.75-53.46A210.24,210.24,0,0,0,269.48,415a208,208,0,0,0,37.88,119.87c-27.46-24.13-66.11-37.12-110.53-37.12-89.59,0-156.47,55.19-156.47,137,0,40.9,16.88,104.53,116.86,131.8L209.83,784c44.79,14.93,44.79,29.86,44.79,37,0,27.92-27.26,40.26-55.19,40.26-37.66,0-53.88-19.48-55.18-43.5H34.53c0,84.4,64.93,138.94,164.9,138.94C274.75,956.7,365,919,365,820.36c0-31.81-6.49-100-124-136.34l-51.28-16.23c-39-11.69-41.55-27.92-41.55-36.36,0-21.43,18.18-35.71,47.39-35.71,33.11,0,46.75,17.53,46.75,41.55H350.71c0-29-7.09-53.89-19.68-74.38a206.64,206.64,0,0,0,250.81,31.63L432.38,1000H540.53l35-95.46H706.68l35,95.46h107L787.19,832.58h98V416.29H784.31V824.72l-88.5-241H598.35A208.23,208.23,0,0,0,684.13,416.3H784.3V189.12L911.79,416.29H1000V0ZM95.34,82.86h52.22c22.7,0,31.78,15.32,31.78,35.75,0,19.86-13.62,32.35-32.91,32.35H95.34Zm60.73,225.3H95.34V228.7H155.5c31.78,0,44.27,21,44.27,39.16,0,19.86-14.19,40.29-43.7,40.29ZM640.22,680.38l42.54,137.15H600.7ZM476.53,524.09c-60.17,0-107.35-48.37-107.35-109.12s47.19-109.71,107.35-109.71,108.53,49,108.53,109.71S536.69,524.09,476.53,524.09Z"/></g></g></svg>